<?xml version="1.0" encoding="UTF-8"?>
<svg width="32" height="32" viewBox="0 0 32 32" fill="none" xmlns="http://www.w3.org/2000/svg">
  <!-- 背景圆形 -->
  <circle cx="16" cy="16" r="16" fill="currentColor" fill-opacity="0.1"/>
  
  <!-- 图像增强图标 -->
  <g fill="currentColor">
    <!-- 图像框架 -->
    <path d="M8 10C8 8.89543 8.89543 8 10 8H22C23.1046 8 24 8.89543 24 10V22C24 23.1046 23.1046 24 22 24H10C8.89543 24 8 23.1046 8 22V10Z" fill="currentColor" fill-opacity="0.2"/>
    
    <!-- 山峰 -->
    <path d="M8 22L13 17L16 20L21 15L24 18V22C24 23.1046 23.1046 24 22 24H10C8.89543 24 8 23.1046 8 22Z" fill="currentColor"/>
    
    <!-- 太阳 -->
    <circle cx="19" cy="13" r="2" fill="currentColor"/>
    
    <!-- 增强光芒 -->
    <path d="M13 17L16 14L19 17L22 14" stroke="currentColor" stroke-width="1.5" stroke-linecap="round"/>
  </g>
</svg> 